<?xml version="1.0" encoding="UTF-8" standalone="no"?>
<!-- Created with Inkscape (http://www.inkscape.org/) -->

<svg
   version="1.1"
   id="svg1"
   width="180"
   height="53.334"
   viewBox="0 0 180 53.334"
   sodipodi:docname="download_google_playstore.svg"
   inkscape:version="1.3.2 (091e20e, 2023-11-25)"
   xmlns:inkscape="http://www.inkscape.org/namespaces/inkscape"
   xmlns:sodipodi="http://sodipodi.sourceforge.net/DTD/sodipodi-0.dtd"
   xmlns="http://www.w3.org/2000/svg"
   xmlns:svg="http://www.w3.org/2000/svg">
  <defs
     id="defs1">
    <clipPath
       clipPathUnits="userSpaceOnUse"
       id="clipPath1">
      <path
         d="M 0,60 H 155 V 0 H 0 Z"
         id="path1" />
    </clipPath>
    <clipPath
       clipPathUnits="userSpaceOnUse"
       id="clipPath3">
      <path
         d="M 0,60 H 155 V 0 H 0 Z"
         transform="matrix(1.3333333,0,0,-1.3333333,0,80)"
         id="path3" />
    </clipPath>
    <clipPath
       clipPathUnits="userSpaceOnUse"
       id="clipPath5">
      <path
         d="M 0,60 H 155 V 0 H 0 Z"
         transform="translate(-140.0001,-10.000101)"
         id="path5" />
    </clipPath>
    <clipPath
       clipPathUnits="userSpaceOnUse"
       id="clipPath7">
      <path
         d="M 0,60 H 155 V 0 H 0 Z"
         transform="translate(-140.0001,-49.999901)"
         id="path7" />
    </clipPath>
    <clipPath
       clipPathUnits="userSpaceOnUse"
       id="clipPath9">
      <path
         d="M 0,60 H 155 V 0 H 0 Z"
         transform="translate(-57.418501,-39.756801)"
         id="path9" />
    </clipPath>
    <clipPath
       clipPathUnits="userSpaceOnUse"
       id="clipPath11">
      <path
         d="M 0,60 H 155 V 0 H 0 Z"
         transform="translate(-62.027801,-42.262701)"
         id="path11" />
    </clipPath>
    <clipPath
       clipPathUnits="userSpaceOnUse"
       id="clipPath13">
      <path
         d="M 0,60 H 155 V 0 H 0 Z"
         transform="translate(-65.278802,-37.000001)"
         id="path13" />
    </clipPath>
    <clipPath
       clipPathUnits="userSpaceOnUse"
       id="clipPath15">
      <path
         d="M 0,60 H 155 V 0 H 0 Z"
         id="path15" />
    </clipPath>
    <clipPath
       clipPathUnits="userSpaceOnUse"
       id="clipPath17">
      <path
         d="M 0,60 H 155 V 0 H 0 Z"
         transform="translate(-74.128402,-37.000001)"
         id="path17" />
    </clipPath>
    <clipPath
       clipPathUnits="userSpaceOnUse"
       id="clipPath19">
      <path
         d="M 0,60 H 155 V 0 H 0 Z"
         transform="translate(-79.779302,-38.277801)"
         id="path19" />
    </clipPath>
    <clipPath
       clipPathUnits="userSpaceOnUse"
       id="clipPath21">
      <path
         d="M 0,60 H 155 V 0 H 0 Z"
         transform="translate(-79.779302,-38.277801)"
         id="path21" />
    </clipPath>
    <clipPath
       clipPathUnits="userSpaceOnUse"
       id="clipPath23">
      <path
         d="M 0,60 H 155 V 0 H 0 Z"
         transform="translate(-85.575205,-37.000001)"
         id="path23" />
    </clipPath>
    <clipPath
       clipPathUnits="userSpaceOnUse"
       id="clipPath25">
      <path
         d="M 0,60 H 155 V 0 H 0 Z"
         id="path25" />
    </clipPath>
    <clipPath
       clipPathUnits="userSpaceOnUse"
       id="clipPath27">
      <path
         d="M 0,60 H 155 V 0 H 0 Z"
         transform="translate(-30.717301,-30.575901)"
         id="path27" />
    </clipPath>
    <clipPath
       clipPathUnits="userSpaceOnUse"
       id="clipPath29">
      <path
         d="M 0,60 H 155 V 0 H 0 Z"
         transform="translate(-41.488201,-32.500101)"
         id="path29" />
    </clipPath>
    <clipPath
       clipPathUnits="userSpaceOnUse"
       id="clipPath31">
      <path
         d="M 0,60 H 155 V 0 H 0 Z"
         transform="translate(-20.0701,-40.722901)"
         id="path31" />
    </clipPath>
    <clipPath
       clipPathUnits="userSpaceOnUse"
       id="clipPath33">
      <path
         d="M 0,60 H 155 V 0 H 0 Z"
         transform="translate(-30.795901,-29.999101)"
         id="path33" />
    </clipPath>
  </defs>
  <sodipodi:namedview
     id="namedview1"
     pagecolor="#ffffff"
     bordercolor="#000000"
     borderopacity="0.25"
     inkscape:showpageshadow="2"
     inkscape:pageopacity="0.0"
     inkscape:pagecheckerboard="0"
     inkscape:deskcolor="#d1d1d1"
     inkscape:zoom="7.8270972"
     inkscape:cx="72.249006"
     inkscape:cy="58.961833"
     inkscape:window-width="2336"
     inkscape:window-height="1626"
     inkscape:window-x="927"
     inkscape:window-y="286"
     inkscape:window-maximized="0"
     inkscape:current-layer="layer-MC0">
    <inkscape:page
       x="0"
       y="0"
       inkscape:label="1"
       id="page1"
       width="180"
       height="53.334"
       margin="0"
       bleed="0" />
  </sodipodi:namedview>
  <g
     id="layer-MC0"
     inkscape:groupmode="layer"
     inkscape:label="artwork">
    <path
       id="path4"
       d="m 0,0 h -125 c -2.75,0 -5,2.25 -5,5 v 30 c 0,2.75 2.25,5 5,5 H 0 c 2.75,0 5,-2.25 5,-5 V 5 C 5,2.25 2.75,0 0,0"
       style="fill:#000000;fill-opacity:1;fill-rule:nonzero;stroke:none"
       transform="matrix(1.3333333,0,0,-1.3333333,173.33333,53.333332)"
       clip-path="url(#clipPath5)" />
    <path
       id="path6"
       d="m 0,0 h -125 c -2.75,0 -5,-2.25 -5,-5 v -30 c 0,-2.75 2.25,-5 5,-5 H 0 c 2.75,0 5,2.25 5,5 V -5 C 5,-2.25 2.75,0 0,0 m 0,-0.8 c 2.316,0 4.2,-1.884 4.2,-4.2 v -30 c 0,-2.316 -1.884,-4.2 -4.2,-4.2 h -125 c -2.316,0 -4.2,1.884 -4.2,4.2 v 30 c 0,2.316 1.884,4.2 4.2,4.2 z"
       style="fill:#a6a6a6;fill-opacity:1;fill-rule:nonzero;stroke:none"
       transform="matrix(1.3333333,0,0,-1.3333333,173.33333,2.6637e-4)"
       clip-path="url(#clipPath7)" />
    <path
       id="path8"
       d="m 0,0 c 0,-0.838 -0.248,-1.505 -0.745,-2.003 -0.565,-0.592 -1.3,-0.888 -2.204,-0.888 -0.867,0 -1.603,0.3 -2.208,0.901 -0.607,0.6 -0.909,1.345 -0.909,2.233 0,0.889 0.302,1.633 0.909,2.234 0.605,0.6 1.341,0.901 2.208,0.901 0.429,0 0.841,-0.084 1.231,-0.252 0.391,-0.168 0.704,-0.391 0.939,-0.67 L -1.307,1.928 C -1.704,2.402 -2.251,2.64 -2.949,2.64 -3.581,2.64 -4.127,2.418 -4.588,1.974 -5.049,1.529 -5.279,0.953 -5.279,0.243 c 0,-0.709 0.23,-1.286 0.691,-1.73 0.461,-0.445 1.007,-0.666 1.639,-0.666 0.67,0 1.228,0.223 1.676,0.67 0.29,0.291 0.457,0.695 0.502,1.215 h -2.178 v 0.721 h 2.907 C -0.014,0.296 0,0.145 0,0"
       style="fill:#ffffff;fill-opacity:1;fill-rule:nonzero;stroke:#ffffff;stroke-width:0.2;stroke-linecap:butt;stroke-linejoin:miter;stroke-miterlimit:10;stroke-dasharray:none;stroke-opacity:1"
       transform="matrix(1.3333333,0,0,-1.3333333,63.224531,13.657732)"
       clip-path="url(#clipPath9)" />
    <path
       id="path10"
       d="m 0,0 h -2.732 v -1.902 h 2.464 V -2.623 H -2.732 V -4.525 H 0 v -0.738 h -3.503 v 6 H 0 Z"
       style="fill:#ffffff;fill-opacity:1;fill-rule:nonzero;stroke:#ffffff;stroke-width:0.2;stroke-linecap:butt;stroke-linejoin:miter;stroke-miterlimit:10;stroke-dasharray:none;stroke-opacity:1"
       transform="matrix(1.3333333,0,0,-1.3333333,69.370264,10.316532)"
       clip-path="url(#clipPath11)" />
    <path
       id="path12"
       d="M 0,0 H -0.771 V 5.263 H -2.447 V 6 H 1.676 V 5.263 H 0 Z"
       style="fill:#ffffff;fill-opacity:1;fill-rule:nonzero;stroke:#ffffff;stroke-width:0.2;stroke-linecap:butt;stroke-linejoin:miter;stroke-miterlimit:10;stroke-dasharray:none;stroke-opacity:1"
       transform="matrix(1.3333333,0,0,-1.3333333,73.704931,17.333466)"
       clip-path="url(#clipPath13)" />
    <path
       id="path14"
       d="m 69.938,43 h 0.771 v -6 h -0.771 z"
       style="fill:#ffffff;fill-opacity:1;fill-rule:nonzero;stroke:#ffffff;stroke-width:0.2;stroke-linecap:butt;stroke-linejoin:miter;stroke-miterlimit:10;stroke-dasharray:none;stroke-opacity:1"
       transform="matrix(1.3333333,0,0,-1.3333333,-13.333469,66.666799)"
       clip-path="url(#clipPath15)" />
    <path
       id="path16"
       d="M 0,0 H -0.771 V 5.263 H -2.447 V 6 H 1.676 V 5.263 H 0 Z"
       style="fill:#ffffff;fill-opacity:1;fill-rule:nonzero;stroke:#ffffff;stroke-width:0.2;stroke-linecap:butt;stroke-linejoin:miter;stroke-miterlimit:10;stroke-dasharray:none;stroke-opacity:1"
       transform="matrix(1.3333333,0,0,-1.3333333,85.504398,17.333466)"
       clip-path="url(#clipPath17)" />
    <path
       id="path18"
       d="M 0,0 C 0.444,-0.45 0.987,-0.674 1.63,-0.674 2.273,-0.674 2.816,-0.45 3.26,0 3.704,0.45 3.927,1.024 3.927,1.722 3.927,2.42 3.704,2.995 3.26,3.444 2.816,3.894 2.273,4.119 1.63,4.119 0.987,4.119 0.444,3.894 0,3.444 -0.443,2.995 -0.666,2.42 -0.666,1.722 -0.666,1.024 -0.443,0.45 0,0 m 3.83,-0.502 c -0.59,-0.607 -1.323,-0.91 -2.2,-0.91 -0.877,0 -1.61,0.303 -2.199,0.91 -0.59,0.606 -0.884,1.347 -0.884,2.224 0,0.877 0.294,1.619 0.884,2.225 0.589,0.606 1.322,0.91 2.199,0.91 0.872,0 1.603,-0.305 2.196,-0.914 C 4.418,3.334 4.714,2.594 4.714,1.722 4.714,0.845 4.419,0.104 3.83,-0.502"
       style="fill:#ffffff;fill-opacity:1;fill-rule:nonzero;stroke:none"
       transform="matrix(1.3333333,0,0,-1.3333333,93.038931,15.629732)"
       clip-path="url(#clipPath19)" />
    <path
       id="path20"
       d="M 0,0 C 0.444,-0.45 0.987,-0.674 1.63,-0.674 2.273,-0.674 2.816,-0.45 3.26,0 3.704,0.45 3.927,1.024 3.927,1.722 3.927,2.42 3.704,2.995 3.26,3.444 2.816,3.894 2.273,4.119 1.63,4.119 0.987,4.119 0.444,3.894 0,3.444 -0.443,2.995 -0.666,2.42 -0.666,1.722 -0.666,1.024 -0.443,0.45 0,0 Z m 3.83,-0.502 c -0.59,-0.607 -1.323,-0.91 -2.2,-0.91 -0.877,0 -1.61,0.303 -2.199,0.91 -0.59,0.606 -0.884,1.347 -0.884,2.224 0,0.877 0.294,1.619 0.884,2.225 0.589,0.606 1.322,0.91 2.199,0.91 0.872,0 1.603,-0.305 2.196,-0.914 C 4.418,3.334 4.714,2.594 4.714,1.722 4.714,0.845 4.419,0.104 3.83,-0.502 Z"
       style="fill:none;stroke:#ffffff;stroke-width:0.2;stroke-linecap:butt;stroke-linejoin:miter;stroke-miterlimit:10;stroke-dasharray:none;stroke-opacity:1"
       transform="matrix(1.3333333,0,0,-1.3333333,93.038931,15.629732)"
       clip-path="url(#clipPath21)" />
    <path
       id="path22"
       d="M 0,0 V 6 H 0.938 L 3.854,1.333 H 3.888 L 3.854,2.489 V 6 H 4.626 V 0 H 3.821 L 0.77,4.894 H 0.737 L 0.77,3.737 V 0 Z"
       style="fill:#ffffff;fill-opacity:1;fill-rule:nonzero;stroke:#ffffff;stroke-width:0.2;stroke-linecap:butt;stroke-linejoin:miter;stroke-miterlimit:10;stroke-dasharray:none;stroke-opacity:1"
       transform="matrix(1.3333333,0,0,-1.3333333,100.7668,17.333466)"
       clip-path="url(#clipPath23)" />
    <path
       id="path24"
       d="m 116.936,20 h 1.866 v 12.501 h -1.866 z m 16.807,7.998 -2.139,-5.42 h -0.064 l -2.22,5.42 h -2.01 l 3.329,-7.575 -1.897,-4.214 h 1.945 l 5.131,11.789 z M 123.161,21.42 c -0.612,0 -1.464,0.305 -1.464,1.062 0,0.964 1.061,1.334 1.978,1.334 0.82,0 1.207,-0.177 1.705,-0.418 -0.145,-1.158 -1.142,-1.978 -2.219,-1.978 m 0.225,6.851 c -1.351,0 -2.751,-0.595 -3.329,-1.914 l 1.656,-0.691 c 0.354,0.691 1.013,0.917 1.705,0.917 0.965,0 1.946,-0.579 1.962,-1.609 v -0.128 c -0.338,0.193 -1.061,0.482 -1.946,0.482 -1.785,0 -3.603,-0.981 -3.603,-2.814 0,-1.673 1.464,-2.751 3.104,-2.751 1.255,0 1.947,0.563 2.381,1.223 h 0.064 v -0.965 h 1.801 v 4.793 c 0,2.219 -1.656,3.457 -3.795,3.457 M 111.854,26.476 H 109.2 v 4.285 h 2.654 c 1.395,0 2.187,-1.155 2.187,-2.142 0,-0.969 -0.792,-2.143 -2.187,-2.143 m -0.048,6.025 h -4.471 V 20 h 1.865 v 4.736 h 2.606 c 2.068,0 4.101,1.498 4.101,3.883 0,2.385 -2.033,3.882 -4.101,3.882 M 87.425,21.418 c -1.289,0 -2.368,1.079 -2.368,2.561 0,1.498 1.079,2.594 2.368,2.594 1.273,0 2.271,-1.096 2.271,-2.594 0,-1.482 -0.998,-2.561 -2.271,-2.561 m 2.143,5.88 h -0.065 c -0.419,0.499 -1.224,0.95 -2.239,0.95 -2.127,0 -4.076,-1.868 -4.076,-4.269 0,-2.384 1.949,-4.237 4.076,-4.237 1.015,0 1.82,0.451 2.239,0.967 h 0.065 v -0.613 c 0,-1.627 -0.87,-2.497 -2.272,-2.497 -1.144,0 -1.853,0.822 -2.143,1.515 l -1.627,-0.677 c 0.467,-1.128 1.708,-2.513 3.77,-2.513 2.191,0 4.044,1.289 4.044,4.43 v 7.637 H 89.568 Z M 92.629,20 h 1.869 v 12.502 h -1.869 z m 4.623,4.124 c -0.048,1.643 1.273,2.481 2.223,2.481 0.742,0 1.37,-0.37 1.579,-0.902 z m 5.8,1.418 c -0.354,0.95 -1.434,2.706 -3.641,2.706 -2.191,0 -4.011,-1.723 -4.011,-4.253 0,-2.384 1.804,-4.253 4.22,-4.253 1.95,0 3.078,1.192 3.545,1.885 l -1.45,0.967 c -0.483,-0.709 -1.144,-1.176 -2.095,-1.176 -0.95,0 -1.627,0.435 -2.062,1.288 l 5.687,2.353 z m -45.308,1.401 v -1.804 h 4.317 c -0.129,-1.015 -0.467,-1.756 -0.982,-2.271 -0.629,-0.629 -1.612,-1.322 -3.335,-1.322 -2.659,0 -4.737,2.143 -4.737,4.801 0,2.659 2.078,4.801 4.737,4.801 1.434,0 2.481,-0.564 3.254,-1.289 l 1.273,1.273 c -1.08,1.031 -2.513,1.821 -4.527,1.821 -3.641,0 -6.702,-2.965 -6.702,-6.606 0,-3.641 3.061,-6.605 6.702,-6.605 1.965,0 3.447,0.645 4.607,1.853 1.193,1.192 1.563,2.867 1.563,4.221 0,0.419 -0.032,0.805 -0.097,1.127 z m 11.079,-5.525 c -1.289,0 -2.401,1.063 -2.401,2.577 0,1.531 1.112,2.578 2.401,2.578 1.288,0 2.4,-1.047 2.4,-2.578 0,-1.514 -1.112,-2.577 -2.4,-2.577 m 0,6.83 c -2.353,0 -4.27,-1.788 -4.27,-4.253 0,-2.449 1.917,-4.253 4.27,-4.253 2.352,0 4.269,1.804 4.269,4.253 0,2.465 -1.917,4.253 -4.269,4.253 m 9.313,-6.83 c -1.289,0 -2.401,1.063 -2.401,2.577 0,1.531 1.112,2.578 2.401,2.578 1.289,0 2.4,-1.047 2.4,-2.578 0,-1.514 -1.111,-2.577 -2.4,-2.577 m 0,6.83 c -2.352,0 -4.269,-1.788 -4.269,-4.253 0,-2.449 1.917,-4.253 4.269,-4.253 2.352,0 4.269,1.804 4.269,4.253 0,2.465 -1.917,4.253 -4.269,4.253"
       style="fill:#ffffff;fill-opacity:1;fill-rule:nonzero;stroke:none"
       transform="matrix(1.3333333,0,0,-1.3333333,-13.333469,66.666799)"
       clip-path="url(#clipPath25)" />
    <path
       id="path26"
       d="m 0,0 -10.647,-11.3 c 10e-4,-0.002 10e-4,-0.005 0.002,-0.007 0.327,-1.227 1.447,-2.13 2.777,-2.13 0.532,0 1.031,0.144 1.459,0.396 l 0.034,0.02 11.984,6.915 z"
       style="fill:#ea4335;fill-opacity:1;fill-rule:nonzero;stroke:none"
       transform="matrix(1.3333333,0,0,-1.3333333,27.622931,25.898932)"
       clip-path="url(#clipPath27)" />
    <path
       id="path28"
       d="m 0,0 -0.01,0.007 -5.174,2.999 -5.829,-5.187 5.85,-5.848 5.146,2.969 c 0.902,0.488 1.515,1.439 1.515,2.535 C 1.498,-1.435 0.894,-0.489 0,0"
       style="fill:#fbbc04;fill-opacity:1;fill-rule:nonzero;stroke:none"
       transform="matrix(1.3333333,0,0,-1.3333333,41.984131,23.333332)"
       clip-path="url(#clipPath29)" />
    <path
       id="path30"
       d="m 0,0 c -0.064,-0.236 -0.098,-0.484 -0.098,-0.74 v -19.968 c 0,-0.256 0.034,-0.504 0.099,-0.739 l 11.012,11.011 z"
       style="fill:#4285f4;fill-opacity:1;fill-rule:nonzero;stroke:none"
       transform="matrix(1.3333333,0,0,-1.3333333,13.426664,12.369599)"
       clip-path="url(#clipPath31)" />
    <path
       id="path32"
       d="m 0,0 5.51,5.509 -11.97,6.94 c -0.435,0.261 -0.943,0.411 -1.486,0.411 -1.33,0 -2.452,-0.905 -2.779,-2.133 0,-10e-4 -0.001,-0.002 -0.001,-0.003 z"
       style="fill:#34a853;fill-opacity:1;fill-rule:nonzero;stroke:none"
       transform="matrix(1.3333333,0,0,-1.3333333,27.727731,26.667999)"
       clip-path="url(#clipPath33)" />
  </g>
</svg>
